<mxfile host="Electron" modified="2024-06-07T13:52:38.861Z" agent="Mozilla/5.0 (Windows NT 10.0; Win64; x64) AppleWebKit/537.36 (KHTML, like Gecko) draw.io/24.4.13 Chrome/124.0.6367.207 Electron/30.0.6 Safari/537.36" etag="30KCIYh4pYa78wKOciVf" version="24.4.13" type="device">
  <diagram name="Page-1" id="FZ21t8oc-SoYZIe1B0un">
    <mxGraphModel dx="1400" dy="839" grid="1" gridSize="10" guides="1" tooltips="1" connect="1" arrows="1" fold="1" page="1" pageScale="1" pageWidth="850" pageHeight="1100" math="0" shadow="0">
      <root>
        <mxCell id="0" />
        <mxCell id="1" parent="0" />
        <mxCell id="Kb0XrY2L2IVBLLLoU3sh-47" value="" style="swimlane;startSize=0;" parent="1" vertex="1">
          <mxGeometry x="880" y="150" width="770" height="640" as="geometry">
            <mxRectangle x="880" y="150" width="50" height="40" as="alternateBounds" />
          </mxGeometry>
        </mxCell>
        <mxCell id="Kb0XrY2L2IVBLLLoU3sh-61" value="" style="edgeStyle=orthogonalEdgeStyle;rounded=0;orthogonalLoop=1;jettySize=auto;html=1;" parent="Kb0XrY2L2IVBLLLoU3sh-47" source="Kb0XrY2L2IVBLLLoU3sh-5" target="Kb0XrY2L2IVBLLLoU3sh-18" edge="1">
          <mxGeometry relative="1" as="geometry" />
        </mxCell>
        <mxCell id="Kb0XrY2L2IVBLLLoU3sh-5" value="&lt;font style=&quot;font-size: 15px;&quot;&gt;Cloudflared&lt;/font&gt;&lt;div&gt;&lt;font style=&quot;font-size: 13px;&quot;&gt;&lt;i&gt;cloudflare tunnel client&lt;/i&gt;&lt;/font&gt;&lt;/div&gt;" style="shape=ext;double=1;rounded=1;whiteSpace=wrap;html=1;" parent="Kb0XrY2L2IVBLLLoU3sh-47" vertex="1">
          <mxGeometry x="85" y="170" width="120" height="80" as="geometry" />
        </mxCell>
        <mxCell id="Kb0XrY2L2IVBLLLoU3sh-65" value="" style="edgeStyle=orthogonalEdgeStyle;rounded=0;orthogonalLoop=1;jettySize=auto;html=1;" parent="Kb0XrY2L2IVBLLLoU3sh-47" source="Kb0XrY2L2IVBLLLoU3sh-6" target="Kb0XrY2L2IVBLLLoU3sh-8" edge="1">
          <mxGeometry relative="1" as="geometry" />
        </mxCell>
        <mxCell id="Kb0XrY2L2IVBLLLoU3sh-67" value="" style="edgeStyle=orthogonalEdgeStyle;rounded=0;orthogonalLoop=1;jettySize=auto;html=1;" parent="Kb0XrY2L2IVBLLLoU3sh-47" source="Kb0XrY2L2IVBLLLoU3sh-6" target="Kb0XrY2L2IVBLLLoU3sh-17" edge="1">
          <mxGeometry relative="1" as="geometry" />
        </mxCell>
        <mxCell id="Kb0XrY2L2IVBLLLoU3sh-6" value="&lt;font style=&quot;font-size: 15px;&quot;&gt;Boundaries&lt;/font&gt;&lt;div&gt;&lt;i style=&quot;&quot;&gt;&lt;font style=&quot;font-size: 13px;&quot;&gt;proccess geojson data from nominatim&lt;/font&gt;&lt;/i&gt;&lt;/div&gt;&lt;div&gt;&lt;i style=&quot;&quot;&gt;&lt;font style=&quot;font-size: 13px;&quot;&gt;(Express JS)&lt;/font&gt;&lt;/i&gt;&lt;/div&gt;" style="shape=ext;double=1;rounded=1;whiteSpace=wrap;html=1;" parent="Kb0XrY2L2IVBLLLoU3sh-47" vertex="1">
          <mxGeometry x="45" y="490" width="190" height="80" as="geometry" />
        </mxCell>
        <mxCell id="Kb0XrY2L2IVBLLLoU3sh-8" value="&lt;font style=&quot;font-size: 15px;&quot;&gt;Nominatim&lt;/font&gt;&lt;div&gt;&lt;font style=&quot;font-size: 13px;&quot;&gt;&lt;i&gt;DB of OSM&lt;/i&gt;&lt;/font&gt;&lt;/div&gt;" style="shape=ext;double=1;rounded=1;whiteSpace=wrap;html=1;" parent="Kb0XrY2L2IVBLLLoU3sh-47" vertex="1">
          <mxGeometry x="45" y="330" width="120" height="80" as="geometry" />
        </mxCell>
        <mxCell id="Kb0XrY2L2IVBLLLoU3sh-9" value="&lt;font style=&quot;font-size: 15px;&quot;&gt;Client&lt;/font&gt;&lt;div&gt;&lt;font size=&quot;1&quot; style=&quot;&quot;&gt;&lt;i style=&quot;font-size: 13px;&quot;&gt;(React JS)&lt;/i&gt;&lt;/font&gt;&lt;/div&gt;" style="shape=ext;double=1;rounded=1;whiteSpace=wrap;html=1;" parent="Kb0XrY2L2IVBLLLoU3sh-47" vertex="1">
          <mxGeometry x="285" y="50" width="120" height="80" as="geometry" />
        </mxCell>
        <mxCell id="Kb0XrY2L2IVBLLLoU3sh-64" style="edgeStyle=orthogonalEdgeStyle;rounded=0;orthogonalLoop=1;jettySize=auto;html=1;exitX=0;exitY=0.5;exitDx=0;exitDy=0;entryX=1;entryY=0.5;entryDx=0;entryDy=0;" parent="Kb0XrY2L2IVBLLLoU3sh-47" source="Kb0XrY2L2IVBLLLoU3sh-10" target="Kb0XrY2L2IVBLLLoU3sh-8" edge="1">
          <mxGeometry relative="1" as="geometry" />
        </mxCell>
        <mxCell id="Kb0XrY2L2IVBLLLoU3sh-66" style="edgeStyle=orthogonalEdgeStyle;rounded=0;orthogonalLoop=1;jettySize=auto;html=1;exitX=0;exitY=1;exitDx=0;exitDy=0;entryX=0.75;entryY=0;entryDx=0;entryDy=0;" parent="Kb0XrY2L2IVBLLLoU3sh-47" source="Kb0XrY2L2IVBLLLoU3sh-10" target="Kb0XrY2L2IVBLLLoU3sh-6" edge="1">
          <mxGeometry relative="1" as="geometry" />
        </mxCell>
        <mxCell id="Kb0XrY2L2IVBLLLoU3sh-68" style="edgeStyle=orthogonalEdgeStyle;rounded=0;orthogonalLoop=1;jettySize=auto;html=1;exitX=1;exitY=1;exitDx=0;exitDy=0;entryX=0.5;entryY=0;entryDx=0;entryDy=0;entryPerimeter=0;" parent="Kb0XrY2L2IVBLLLoU3sh-47" source="Kb0XrY2L2IVBLLLoU3sh-10" target="Kb0XrY2L2IVBLLLoU3sh-16" edge="1">
          <mxGeometry relative="1" as="geometry">
            <mxPoint x="575" y="470" as="targetPoint" />
          </mxGeometry>
        </mxCell>
        <mxCell id="Kb0XrY2L2IVBLLLoU3sh-74" style="edgeStyle=orthogonalEdgeStyle;rounded=0;orthogonalLoop=1;jettySize=auto;html=1;exitX=1;exitY=0.5;exitDx=0;exitDy=0;entryX=0;entryY=0.5;entryDx=0;entryDy=0;" parent="Kb0XrY2L2IVBLLLoU3sh-47" source="Kb0XrY2L2IVBLLLoU3sh-10" target="Kb0XrY2L2IVBLLLoU3sh-45" edge="1">
          <mxGeometry relative="1" as="geometry" />
        </mxCell>
        <mxCell id="Kb0XrY2L2IVBLLLoU3sh-10" value="&lt;font style=&quot;font-size: 15px;&quot;&gt;Core&lt;/font&gt;&lt;div&gt;&lt;font style=&quot;font-size: 13px;&quot;&gt;&lt;i&gt;(Spring Boot)&lt;/i&gt;&lt;/font&gt;&lt;/div&gt;" style="shape=ext;double=1;rounded=1;whiteSpace=wrap;html=1;" parent="Kb0XrY2L2IVBLLLoU3sh-47" vertex="1">
          <mxGeometry x="285" y="330" width="120" height="80" as="geometry" />
        </mxCell>
        <mxCell id="Kb0XrY2L2IVBLLLoU3sh-16" value="&lt;div&gt;&lt;font style=&quot;font-size: 15px;&quot;&gt;&lt;br&gt;&lt;/font&gt;&lt;/div&gt;&lt;font style=&quot;font-size: 15px;&quot;&gt;PostgreSQL&lt;/font&gt;" style="strokeWidth=2;html=1;shape=mxgraph.flowchart.database;whiteSpace=wrap;" parent="Kb0XrY2L2IVBLLLoU3sh-47" vertex="1">
          <mxGeometry x="525" y="490" width="100" height="80" as="geometry" />
        </mxCell>
        <mxCell id="Kb0XrY2L2IVBLLLoU3sh-17" value="&lt;div&gt;&lt;font style=&quot;font-size: 15px;&quot;&gt;&lt;br&gt;&lt;/font&gt;&lt;/div&gt;&lt;font style=&quot;font-size: 15px;&quot;&gt;Minio&lt;/font&gt;" style="strokeWidth=2;html=1;shape=mxgraph.flowchart.database;whiteSpace=wrap;" parent="Kb0XrY2L2IVBLLLoU3sh-47" vertex="1">
          <mxGeometry x="345" y="490" width="100" height="80" as="geometry" />
        </mxCell>
        <mxCell id="Kb0XrY2L2IVBLLLoU3sh-62" value="" style="edgeStyle=orthogonalEdgeStyle;rounded=0;orthogonalLoop=1;jettySize=auto;html=1;" parent="Kb0XrY2L2IVBLLLoU3sh-47" source="Kb0XrY2L2IVBLLLoU3sh-18" target="Kb0XrY2L2IVBLLLoU3sh-9" edge="1">
          <mxGeometry relative="1" as="geometry" />
        </mxCell>
        <mxCell id="Kb0XrY2L2IVBLLLoU3sh-63" value="" style="edgeStyle=orthogonalEdgeStyle;rounded=0;orthogonalLoop=1;jettySize=auto;html=1;" parent="Kb0XrY2L2IVBLLLoU3sh-47" source="Kb0XrY2L2IVBLLLoU3sh-18" target="Kb0XrY2L2IVBLLLoU3sh-10" edge="1">
          <mxGeometry relative="1" as="geometry" />
        </mxCell>
        <mxCell id="Kb0XrY2L2IVBLLLoU3sh-18" value="&lt;font style=&quot;font-size: 15px;&quot;&gt;Nginx&lt;/font&gt;&lt;div&gt;&lt;span style=&quot;font-size: 13px;&quot;&gt;&lt;i&gt;reverse proxy server&lt;/i&gt;&lt;/span&gt;&lt;/div&gt;" style="shape=ext;double=1;rounded=1;whiteSpace=wrap;html=1;" parent="Kb0XrY2L2IVBLLLoU3sh-47" vertex="1">
          <mxGeometry x="285" y="170" width="120" height="80" as="geometry" />
        </mxCell>
        <mxCell id="Kb0XrY2L2IVBLLLoU3sh-45" value="" style="swimlane;startSize=0;" parent="Kb0XrY2L2IVBLLLoU3sh-47" vertex="1">
          <mxGeometry x="505" y="50" width="220" height="350" as="geometry">
            <mxRectangle x="900" y="10" width="50" height="40" as="alternateBounds" />
          </mxGeometry>
        </mxCell>
        <mxCell id="Kb0XrY2L2IVBLLLoU3sh-20" value="" style="group" parent="Kb0XrY2L2IVBLLLoU3sh-45" vertex="1" connectable="0">
          <mxGeometry x="10" y="10" width="180" height="60" as="geometry" />
        </mxCell>
        <mxCell id="Kb0XrY2L2IVBLLLoU3sh-11" value="&lt;font style=&quot;font-size: 15px;&quot;&gt;Telegram&amp;nbsp;&lt;/font&gt;&lt;i style=&quot;font-size: 13px; background-color: initial;&quot;&gt;userbot&lt;/i&gt;&lt;div style=&quot;font-size: 13px;&quot;&gt;&lt;font style=&quot;font-size: 13px;&quot;&gt;&lt;i&gt;(TDlib + Express JS)&lt;/i&gt;&lt;/font&gt;&lt;/div&gt;" style="shape=ext;double=1;rounded=1;whiteSpace=wrap;html=1;" parent="Kb0XrY2L2IVBLLLoU3sh-20" vertex="1">
          <mxGeometry x="20" y="6.666666666666666" width="160" height="53.33333333333333" as="geometry" />
        </mxCell>
        <mxCell id="Kb0XrY2L2IVBLLLoU3sh-19" value="&lt;font size=&quot;1&quot; style=&quot;&quot;&gt;&lt;b style=&quot;font-size: 14px;&quot;&gt;1&lt;/b&gt;&lt;/font&gt;" style="text;html=1;align=center;verticalAlign=middle;whiteSpace=wrap;rounded=0;" parent="Kb0XrY2L2IVBLLLoU3sh-20" vertex="1">
          <mxGeometry width="20" height="13.333333333333332" as="geometry" />
        </mxCell>
        <mxCell id="Kb0XrY2L2IVBLLLoU3sh-30" value="" style="group" parent="Kb0XrY2L2IVBLLLoU3sh-45" vertex="1" connectable="0">
          <mxGeometry x="10" y="80" width="180" height="60" as="geometry" />
        </mxCell>
        <mxCell id="Kb0XrY2L2IVBLLLoU3sh-31" value="&lt;font style=&quot;font-size: 15px;&quot;&gt;Telegram&amp;nbsp;&lt;/font&gt;&lt;i style=&quot;font-size: 13px; background-color: initial;&quot;&gt;userbot&lt;/i&gt;&lt;div style=&quot;font-size: 13px;&quot;&gt;&lt;font style=&quot;font-size: 13px;&quot;&gt;&lt;i&gt;(TDlib + Express JS)&lt;/i&gt;&lt;/font&gt;&lt;/div&gt;" style="shape=ext;double=1;rounded=1;whiteSpace=wrap;html=1;" parent="Kb0XrY2L2IVBLLLoU3sh-30" vertex="1">
          <mxGeometry x="20" y="6.666666666666666" width="160" height="53.33333333333333" as="geometry" />
        </mxCell>
        <mxCell id="Kb0XrY2L2IVBLLLoU3sh-32" value="&lt;font size=&quot;1&quot; style=&quot;&quot;&gt;&lt;b style=&quot;font-size: 14px;&quot;&gt;2&lt;/b&gt;&lt;/font&gt;" style="text;html=1;align=center;verticalAlign=middle;whiteSpace=wrap;rounded=0;" parent="Kb0XrY2L2IVBLLLoU3sh-30" vertex="1">
          <mxGeometry width="20" height="13.333333333333332" as="geometry" />
        </mxCell>
        <mxCell id="Kb0XrY2L2IVBLLLoU3sh-33" value="" style="group" parent="Kb0XrY2L2IVBLLLoU3sh-45" vertex="1" connectable="0">
          <mxGeometry x="10" y="150" width="180" height="60" as="geometry" />
        </mxCell>
        <mxCell id="Kb0XrY2L2IVBLLLoU3sh-34" value="&lt;font style=&quot;font-size: 15px;&quot;&gt;Telegram&amp;nbsp;&lt;/font&gt;&lt;i style=&quot;font-size: 13px; background-color: initial;&quot;&gt;userbot&lt;/i&gt;&lt;div style=&quot;font-size: 13px;&quot;&gt;&lt;font style=&quot;font-size: 13px;&quot;&gt;&lt;i&gt;(TDlib + Express JS)&lt;/i&gt;&lt;/font&gt;&lt;/div&gt;" style="shape=ext;double=1;rounded=1;whiteSpace=wrap;html=1;" parent="Kb0XrY2L2IVBLLLoU3sh-33" vertex="1">
          <mxGeometry x="20" y="6.666666666666666" width="160" height="53.33333333333333" as="geometry" />
        </mxCell>
        <mxCell id="Kb0XrY2L2IVBLLLoU3sh-35" value="&lt;font size=&quot;1&quot; style=&quot;&quot;&gt;&lt;b style=&quot;font-size: 14px;&quot;&gt;3&lt;/b&gt;&lt;/font&gt;" style="text;html=1;align=center;verticalAlign=middle;whiteSpace=wrap;rounded=0;" parent="Kb0XrY2L2IVBLLLoU3sh-33" vertex="1">
          <mxGeometry width="20" height="13.333333333333332" as="geometry" />
        </mxCell>
        <mxCell id="Kb0XrY2L2IVBLLLoU3sh-42" value="" style="group" parent="Kb0XrY2L2IVBLLLoU3sh-45" vertex="1" connectable="0">
          <mxGeometry x="90" y="220" width="20" height="40" as="geometry" />
        </mxCell>
        <mxCell id="Kb0XrY2L2IVBLLLoU3sh-39" value="" style="shape=waypoint;sketch=0;fillStyle=solid;size=6;pointerEvents=1;points=[];fillColor=none;resizable=0;rotatable=0;perimeter=centerPerimeter;snapToPoint=1;" parent="Kb0XrY2L2IVBLLLoU3sh-42" vertex="1">
          <mxGeometry width="20" height="20" as="geometry" />
        </mxCell>
        <mxCell id="Kb0XrY2L2IVBLLLoU3sh-40" value="" style="shape=waypoint;sketch=0;fillStyle=solid;size=6;pointerEvents=1;points=[];fillColor=none;resizable=0;rotatable=0;perimeter=centerPerimeter;snapToPoint=1;" parent="Kb0XrY2L2IVBLLLoU3sh-42" vertex="1">
          <mxGeometry y="10" width="20" height="20" as="geometry" />
        </mxCell>
        <mxCell id="Kb0XrY2L2IVBLLLoU3sh-41" value="" style="shape=waypoint;sketch=0;fillStyle=solid;size=6;pointerEvents=1;points=[];fillColor=none;resizable=0;rotatable=0;perimeter=centerPerimeter;snapToPoint=1;" parent="Kb0XrY2L2IVBLLLoU3sh-42" vertex="1">
          <mxGeometry y="20" width="20" height="20" as="geometry" />
        </mxCell>
        <mxCell id="Kb0XrY2L2IVBLLLoU3sh-36" value="" style="group" parent="Kb0XrY2L2IVBLLLoU3sh-45" vertex="1" connectable="0">
          <mxGeometry x="10" y="260" width="180" height="60" as="geometry" />
        </mxCell>
        <mxCell id="Kb0XrY2L2IVBLLLoU3sh-37" value="&lt;font style=&quot;font-size: 15px;&quot;&gt;Telegram&amp;nbsp;&lt;/font&gt;&lt;i style=&quot;font-size: 13px; background-color: initial;&quot;&gt;userbot&lt;/i&gt;&lt;div style=&quot;font-size: 13px;&quot;&gt;&lt;font style=&quot;font-size: 13px;&quot;&gt;&lt;i&gt;(TDlib + Express JS)&lt;/i&gt;&lt;/font&gt;&lt;/div&gt;" style="shape=ext;double=1;rounded=1;whiteSpace=wrap;html=1;" parent="Kb0XrY2L2IVBLLLoU3sh-36" vertex="1">
          <mxGeometry x="20" y="6.666666666666666" width="160" height="53.33333333333333" as="geometry" />
        </mxCell>
        <mxCell id="Kb0XrY2L2IVBLLLoU3sh-38" value="&lt;font size=&quot;1&quot; style=&quot;&quot;&gt;&lt;b style=&quot;font-size: 14px;&quot;&gt;n&lt;/b&gt;&lt;/font&gt;" style="text;html=1;align=center;verticalAlign=middle;whiteSpace=wrap;rounded=0;" parent="Kb0XrY2L2IVBLLLoU3sh-36" vertex="1">
          <mxGeometry width="20" height="13.333333333333332" as="geometry" />
        </mxCell>
        <mxCell id="Kb0XrY2L2IVBLLLoU3sh-70" style="edgeStyle=orthogonalEdgeStyle;rounded=0;orthogonalLoop=1;jettySize=auto;html=1;exitX=0.5;exitY=1;exitDx=0;exitDy=0;" parent="Kb0XrY2L2IVBLLLoU3sh-47" source="Kb0XrY2L2IVBLLLoU3sh-10" edge="1">
          <mxGeometry relative="1" as="geometry">
            <mxPoint x="375" y="500" as="targetPoint" />
          </mxGeometry>
        </mxCell>
        <mxCell id="Kb0XrY2L2IVBLLLoU3sh-71" style="edgeStyle=orthogonalEdgeStyle;rounded=0;orthogonalLoop=1;jettySize=auto;html=1;exitX=0.5;exitY=1;exitDx=0;exitDy=0;entryX=0.897;entryY=0.125;entryDx=0;entryDy=0;entryPerimeter=0;" parent="Kb0XrY2L2IVBLLLoU3sh-47" source="Kb0XrY2L2IVBLLLoU3sh-45" target="Kb0XrY2L2IVBLLLoU3sh-16" edge="1">
          <mxGeometry relative="1" as="geometry" />
        </mxCell>
        <mxCell id="Kb0XrY2L2IVBLLLoU3sh-72" style="edgeStyle=orthogonalEdgeStyle;rounded=0;orthogonalLoop=1;jettySize=auto;html=1;exitX=0.75;exitY=1;exitDx=0;exitDy=0;entryX=0.5;entryY=1;entryDx=0;entryDy=0;entryPerimeter=0;" parent="Kb0XrY2L2IVBLLLoU3sh-47" source="Kb0XrY2L2IVBLLLoU3sh-45" target="Kb0XrY2L2IVBLLLoU3sh-17" edge="1">
          <mxGeometry relative="1" as="geometry" />
        </mxCell>
        <mxCell id="Kb0XrY2L2IVBLLLoU3sh-75" value="&lt;h1 style=&quot;margin-top: 0px;&quot;&gt;Proxmox VM&lt;/h1&gt;" style="text;html=1;whiteSpace=wrap;overflow=hidden;rounded=0;" parent="1" vertex="1">
          <mxGeometry x="1500" y="110" width="160" height="40" as="geometry" />
        </mxCell>
        <mxCell id="Kb0XrY2L2IVBLLLoU3sh-76" value="" style="shape=link;html=1;rounded=0;exitX=0;exitY=0.5;exitDx=0;exitDy=0;width=12.06896551724138;" parent="1" source="Kb0XrY2L2IVBLLLoU3sh-5" edge="1">
          <mxGeometry width="100" relative="1" as="geometry">
            <mxPoint x="1140" y="540" as="sourcePoint" />
            <mxPoint x="770" y="360" as="targetPoint" />
          </mxGeometry>
        </mxCell>
        <mxCell id="Kb0XrY2L2IVBLLLoU3sh-77" value="Cloudflare tunel" style="text;html=1;align=center;verticalAlign=middle;whiteSpace=wrap;rounded=0;" parent="1" vertex="1">
          <mxGeometry x="770" y="330" width="110" height="30" as="geometry" />
        </mxCell>
      </root>
    </mxGraphModel>
  </diagram>
</mxfile>
